<mxfile host="app.diagrams.net" agent="Mozilla/5.0 (Windows NT 10.0; Win64; x64; rv:131.0) Gecko/20100101 Firefox/131.0" version="24.8.0">
  <diagram name="Page-1" id="KCYgEHQ_xMG1G2WC19Dg">
    <mxGraphModel dx="2568" dy="940" grid="1" gridSize="10" guides="1" tooltips="1" connect="1" arrows="1" fold="1" page="1" pageScale="1" pageWidth="850" pageHeight="1100" math="0" shadow="0">
      <root>
        <mxCell id="0" />
        <mxCell id="1" parent="0" />
        <mxCell id="_IO0_zcIHggkC3envVkG-2" value="&lt;p style=&quot;margin:0px;margin-top:4px;margin-left:10px;text-align:left;&quot;&gt;&lt;b&gt;req&lt;/b&gt; [package] Requirements [3D-Printing Production System]&lt;br&gt;&lt;/p&gt;" style="html=1;shape=mxgraph.sysml.package;html=1;overflow=fill;whiteSpace=wrap;labelX=356;" vertex="1" parent="1">
          <mxGeometry x="-490" y="50" width="1890" height="1020" as="geometry" />
        </mxCell>
        <mxCell id="_IO0_zcIHggkC3envVkG-3" value="" style="fontStyle=1;align=center;verticalAlign=middle;childLayout=stackLayout;horizontal=1;horizontalStack=0;resizeParent=1;resizeParentMax=0;resizeLast=0;marginBottom=0;" vertex="1" parent="1">
          <mxGeometry x="315" y="60" width="220" height="126" as="geometry" />
        </mxCell>
        <mxCell id="_IO0_zcIHggkC3envVkG-4" value="&amp;lt;&amp;lt;requirement&amp;gt;&amp;gt;" style="html=1;align=center;spacing=0;verticalAlign=middle;strokeColor=none;fillColor=none;whiteSpace=wrap;spacingTop=3;" vertex="1" parent="_IO0_zcIHggkC3envVkG-3">
          <mxGeometry width="220" height="16" as="geometry" />
        </mxCell>
        <mxCell id="_IO0_zcIHggkC3envVkG-5" value="3D Printing Production" style="html=1;align=center;spacing=0;verticalAlign=middle;strokeColor=none;fillColor=none;whiteSpace=wrap;fontStyle=1" vertex="1" parent="_IO0_zcIHggkC3envVkG-3">
          <mxGeometry y="16" width="220" height="18" as="geometry" />
        </mxCell>
        <mxCell id="_IO0_zcIHggkC3envVkG-6" value="" style="line;strokeWidth=0.25;fillColor=none;align=left;verticalAlign=middle;spacingTop=-1;spacingLeft=3;spacingRight=3;rotatable=0;labelPosition=right;points=[];portConstraint=eastwest;" vertex="1" parent="_IO0_zcIHggkC3envVkG-3">
          <mxGeometry y="34" width="220" height="8" as="geometry" />
        </mxCell>
        <mxCell id="_IO0_zcIHggkC3envVkG-8" value="Id=&quot;F-1&quot;" style="html=1;align=left;spacing=0;verticalAlign=middle;strokeColor=none;fillColor=none;whiteSpace=wrap;spacingLeft=10;" vertex="1" parent="_IO0_zcIHggkC3envVkG-3">
          <mxGeometry y="42" width="220" height="16" as="geometry" />
        </mxCell>
        <mxCell id="_IO0_zcIHggkC3envVkG-7" value="text=&quot;The system shall be capable of printing, handling and shipping orders received from customers automatically&quot;" style="html=1;align=left;spacing=0;verticalAlign=middle;strokeColor=none;fillColor=none;whiteSpace=wrap;spacingLeft=10;" vertex="1" parent="_IO0_zcIHggkC3envVkG-3">
          <mxGeometry y="58" width="220" height="68" as="geometry" />
        </mxCell>
        <mxCell id="_IO0_zcIHggkC3envVkG-10" value="" style="fontStyle=1;align=center;verticalAlign=middle;childLayout=stackLayout;horizontal=1;horizontalStack=0;resizeParent=1;resizeParentMax=0;resizeLast=0;marginBottom=0;" vertex="1" parent="1">
          <mxGeometry x="-450" y="320" width="220" height="106" as="geometry" />
        </mxCell>
        <mxCell id="_IO0_zcIHggkC3envVkG-11" value="&amp;lt;&amp;lt;requirement&amp;gt;&amp;gt;" style="html=1;align=center;spacing=0;verticalAlign=middle;strokeColor=none;fillColor=none;whiteSpace=wrap;spacingTop=3;" vertex="1" parent="_IO0_zcIHggkC3envVkG-10">
          <mxGeometry width="220" height="16" as="geometry" />
        </mxCell>
        <mxCell id="_IO0_zcIHggkC3envVkG-12" value="Order Management" style="html=1;align=center;spacing=0;verticalAlign=middle;strokeColor=none;fillColor=none;whiteSpace=wrap;fontStyle=1" vertex="1" parent="_IO0_zcIHggkC3envVkG-10">
          <mxGeometry y="16" width="220" height="18" as="geometry" />
        </mxCell>
        <mxCell id="_IO0_zcIHggkC3envVkG-13" value="" style="line;strokeWidth=0.25;fillColor=none;align=left;verticalAlign=middle;spacingTop=-1;spacingLeft=3;spacingRight=3;rotatable=0;labelPosition=right;points=[];portConstraint=eastwest;" vertex="1" parent="_IO0_zcIHggkC3envVkG-10">
          <mxGeometry y="34" width="220" height="8" as="geometry" />
        </mxCell>
        <mxCell id="_IO0_zcIHggkC3envVkG-15" value="Id=&quot;F-O&quot;" style="html=1;align=left;spacing=0;verticalAlign=middle;strokeColor=none;fillColor=none;whiteSpace=wrap;spacingLeft=10;" vertex="1" parent="_IO0_zcIHggkC3envVkG-10">
          <mxGeometry y="42" width="220" height="16" as="geometry" />
        </mxCell>
        <mxCell id="_IO0_zcIHggkC3envVkG-14" value="text=&quot;The system shall be able to correctly handle orders received from customers&quot;" style="html=1;align=left;spacing=0;verticalAlign=middle;strokeColor=none;fillColor=none;whiteSpace=wrap;spacingLeft=10;" vertex="1" parent="_IO0_zcIHggkC3envVkG-10">
          <mxGeometry y="58" width="220" height="48" as="geometry" />
        </mxCell>
        <mxCell id="_IO0_zcIHggkC3envVkG-28" style="edgeStyle=orthogonalEdgeStyle;rounded=0;orthogonalLoop=1;jettySize=auto;html=1;exitX=0.5;exitY=0;exitDx=0;exitDy=0;entryX=0.5;entryY=1;entryDx=0;entryDy=0;dashed=1;endArrow=open;endFill=0;" edge="1" parent="1" source="_IO0_zcIHggkC3envVkG-11" target="_IO0_zcIHggkC3envVkG-7">
          <mxGeometry relative="1" as="geometry" />
        </mxCell>
        <mxCell id="_IO0_zcIHggkC3envVkG-29" value="&lt;div&gt;&amp;lt;&amp;lt;deriveReqt&amp;gt;&amp;gt;&lt;/div&gt;" style="edgeLabel;html=1;align=center;verticalAlign=middle;resizable=0;points=[];" vertex="1" connectable="0" parent="_IO0_zcIHggkC3envVkG-28">
          <mxGeometry x="-0.1987" y="1" relative="1" as="geometry">
            <mxPoint as="offset" />
          </mxGeometry>
        </mxCell>
        <mxCell id="_IO0_zcIHggkC3envVkG-30" value="" style="fontStyle=1;align=center;verticalAlign=middle;childLayout=stackLayout;horizontal=1;horizontalStack=0;resizeParent=1;resizeParentMax=0;resizeLast=0;marginBottom=0;" vertex="1" parent="1">
          <mxGeometry x="-300" y="590" width="220" height="106" as="geometry" />
        </mxCell>
        <mxCell id="_IO0_zcIHggkC3envVkG-31" value="&amp;lt;&amp;lt;requirement&amp;gt;&amp;gt;" style="html=1;align=center;spacing=0;verticalAlign=middle;strokeColor=none;fillColor=none;whiteSpace=wrap;spacingTop=3;" vertex="1" parent="_IO0_zcIHggkC3envVkG-30">
          <mxGeometry width="220" height="16" as="geometry" />
        </mxCell>
        <mxCell id="_IO0_zcIHggkC3envVkG-32" value="Order validation" style="html=1;align=center;spacing=0;verticalAlign=middle;strokeColor=none;fillColor=none;whiteSpace=wrap;fontStyle=1" vertex="1" parent="_IO0_zcIHggkC3envVkG-30">
          <mxGeometry y="16" width="220" height="18" as="geometry" />
        </mxCell>
        <mxCell id="_IO0_zcIHggkC3envVkG-33" value="" style="line;strokeWidth=0.25;fillColor=none;align=left;verticalAlign=middle;spacingTop=-1;spacingLeft=3;spacingRight=3;rotatable=0;labelPosition=right;points=[];portConstraint=eastwest;" vertex="1" parent="_IO0_zcIHggkC3envVkG-30">
          <mxGeometry y="34" width="220" height="8" as="geometry" />
        </mxCell>
        <mxCell id="_IO0_zcIHggkC3envVkG-35" value="Id=&quot;F-O-2&quot;" style="html=1;align=left;spacing=0;verticalAlign=middle;strokeColor=none;fillColor=none;whiteSpace=wrap;spacingLeft=10;" vertex="1" parent="_IO0_zcIHggkC3envVkG-30">
          <mxGeometry y="42" width="220" height="16" as="geometry" />
        </mxCell>
        <mxCell id="_IO0_zcIHggkC3envVkG-34" value="text=&quot;The system shall validate orders received from customers&quot;" style="html=1;align=left;spacing=0;verticalAlign=middle;strokeColor=none;fillColor=none;whiteSpace=wrap;spacingLeft=10;" vertex="1" parent="_IO0_zcIHggkC3envVkG-30">
          <mxGeometry y="58" width="220" height="48" as="geometry" />
        </mxCell>
        <mxCell id="_IO0_zcIHggkC3envVkG-36" value="" style="fontStyle=1;align=center;verticalAlign=middle;childLayout=stackLayout;horizontal=1;horizontalStack=0;resizeParent=1;resizeParentMax=0;resizeLast=0;marginBottom=0;" vertex="1" parent="1">
          <mxGeometry x="-300" y="450" width="220" height="106" as="geometry" />
        </mxCell>
        <mxCell id="_IO0_zcIHggkC3envVkG-37" value="&amp;lt;&amp;lt;requirement&amp;gt;&amp;gt;" style="html=1;align=center;spacing=0;verticalAlign=middle;strokeColor=none;fillColor=none;whiteSpace=wrap;spacingTop=3;" vertex="1" parent="_IO0_zcIHggkC3envVkG-36">
          <mxGeometry width="220" height="16" as="geometry" />
        </mxCell>
        <mxCell id="_IO0_zcIHggkC3envVkG-38" value="Order reception" style="html=1;align=center;spacing=0;verticalAlign=middle;strokeColor=none;fillColor=none;whiteSpace=wrap;fontStyle=1" vertex="1" parent="_IO0_zcIHggkC3envVkG-36">
          <mxGeometry y="16" width="220" height="18" as="geometry" />
        </mxCell>
        <mxCell id="_IO0_zcIHggkC3envVkG-39" value="" style="line;strokeWidth=0.25;fillColor=none;align=left;verticalAlign=middle;spacingTop=-1;spacingLeft=3;spacingRight=3;rotatable=0;labelPosition=right;points=[];portConstraint=eastwest;" vertex="1" parent="_IO0_zcIHggkC3envVkG-36">
          <mxGeometry y="34" width="220" height="8" as="geometry" />
        </mxCell>
        <mxCell id="_IO0_zcIHggkC3envVkG-41" value="Id=&quot;F-O-1&quot;" style="html=1;align=left;spacing=0;verticalAlign=middle;strokeColor=none;fillColor=none;whiteSpace=wrap;spacingLeft=10;" vertex="1" parent="_IO0_zcIHggkC3envVkG-36">
          <mxGeometry y="42" width="220" height="16" as="geometry" />
        </mxCell>
        <mxCell id="_IO0_zcIHggkC3envVkG-40" value="text=&quot;The system must be able to receive orders from customers&quot;" style="html=1;align=left;spacing=0;verticalAlign=middle;strokeColor=none;fillColor=none;whiteSpace=wrap;spacingLeft=10;" vertex="1" parent="_IO0_zcIHggkC3envVkG-36">
          <mxGeometry y="58" width="220" height="48" as="geometry" />
        </mxCell>
        <mxCell id="_IO0_zcIHggkC3envVkG-42" value="" style="fontStyle=1;align=center;verticalAlign=middle;childLayout=stackLayout;horizontal=1;horizontalStack=0;resizeParent=1;resizeParentMax=0;resizeLast=0;marginBottom=0;" vertex="1" parent="1">
          <mxGeometry x="-300" y="730" width="220" height="106" as="geometry" />
        </mxCell>
        <mxCell id="_IO0_zcIHggkC3envVkG-43" value="&amp;lt;&amp;lt;requirement&amp;gt;&amp;gt;" style="html=1;align=center;spacing=0;verticalAlign=middle;strokeColor=none;fillColor=none;whiteSpace=wrap;spacingTop=3;" vertex="1" parent="_IO0_zcIHggkC3envVkG-42">
          <mxGeometry width="220" height="16" as="geometry" />
        </mxCell>
        <mxCell id="_IO0_zcIHggkC3envVkG-44" value="Order conversion" style="html=1;align=center;spacing=0;verticalAlign=middle;strokeColor=none;fillColor=none;whiteSpace=wrap;fontStyle=1" vertex="1" parent="_IO0_zcIHggkC3envVkG-42">
          <mxGeometry y="16" width="220" height="18" as="geometry" />
        </mxCell>
        <mxCell id="_IO0_zcIHggkC3envVkG-45" value="" style="line;strokeWidth=0.25;fillColor=none;align=left;verticalAlign=middle;spacingTop=-1;spacingLeft=3;spacingRight=3;rotatable=0;labelPosition=right;points=[];portConstraint=eastwest;" vertex="1" parent="_IO0_zcIHggkC3envVkG-42">
          <mxGeometry y="34" width="220" height="8" as="geometry" />
        </mxCell>
        <mxCell id="_IO0_zcIHggkC3envVkG-47" value="Id=&quot;F-O-3&quot;" style="html=1;align=left;spacing=0;verticalAlign=middle;strokeColor=none;fillColor=none;whiteSpace=wrap;spacingLeft=10;" vertex="1" parent="_IO0_zcIHggkC3envVkG-42">
          <mxGeometry y="42" width="220" height="16" as="geometry" />
        </mxCell>
        <mxCell id="_IO0_zcIHggkC3envVkG-46" value="text=&quot;The system must convert orders to a suitable 3D representation, which is ready for printing&quot;" style="html=1;align=left;spacing=0;verticalAlign=middle;strokeColor=none;fillColor=none;whiteSpace=wrap;spacingLeft=10;" vertex="1" parent="_IO0_zcIHggkC3envVkG-42">
          <mxGeometry y="58" width="220" height="48" as="geometry" />
        </mxCell>
        <mxCell id="_IO0_zcIHggkC3envVkG-48" style="edgeStyle=orthogonalEdgeStyle;rounded=0;orthogonalLoop=1;jettySize=auto;html=1;exitX=0;exitY=0.5;exitDx=0;exitDy=0;entryX=0.25;entryY=1;entryDx=0;entryDy=0;endArrow=open;endFill=0;dashed=1;" edge="1" parent="1" source="_IO0_zcIHggkC3envVkG-40" target="_IO0_zcIHggkC3envVkG-14">
          <mxGeometry relative="1" as="geometry">
            <mxPoint x="-395" y="420" as="targetPoint" />
          </mxGeometry>
        </mxCell>
        <mxCell id="_IO0_zcIHggkC3envVkG-52" value="&amp;lt;&amp;lt;deriveReqt&amp;gt;&amp;gt;" style="edgeLabel;html=1;align=center;verticalAlign=middle;resizable=0;points=[];" vertex="1" connectable="0" parent="_IO0_zcIHggkC3envVkG-48">
          <mxGeometry x="-0.5091" y="1" relative="1" as="geometry">
            <mxPoint as="offset" />
          </mxGeometry>
        </mxCell>
        <mxCell id="_IO0_zcIHggkC3envVkG-50" style="edgeStyle=orthogonalEdgeStyle;rounded=0;orthogonalLoop=1;jettySize=auto;html=1;exitX=0;exitY=0.5;exitDx=0;exitDy=0;entryX=0.25;entryY=1;entryDx=0;entryDy=0;dashed=1;endArrow=open;endFill=0;" edge="1" parent="1" source="_IO0_zcIHggkC3envVkG-34" target="_IO0_zcIHggkC3envVkG-14">
          <mxGeometry relative="1" as="geometry">
            <mxPoint x="-400" y="430" as="targetPoint" />
          </mxGeometry>
        </mxCell>
        <mxCell id="_IO0_zcIHggkC3envVkG-53" value="&amp;lt;&amp;lt;deriveReqt&amp;gt;&amp;gt;" style="edgeLabel;html=1;align=center;verticalAlign=middle;resizable=0;points=[];" vertex="1" connectable="0" parent="_IO0_zcIHggkC3envVkG-50">
          <mxGeometry x="-0.6944" relative="1" as="geometry">
            <mxPoint as="offset" />
          </mxGeometry>
        </mxCell>
        <mxCell id="_IO0_zcIHggkC3envVkG-51" style="edgeStyle=orthogonalEdgeStyle;rounded=0;orthogonalLoop=1;jettySize=auto;html=1;exitX=0;exitY=0.5;exitDx=0;exitDy=0;entryX=0.25;entryY=1;entryDx=0;entryDy=0;dashed=1;endArrow=open;endFill=0;" edge="1" parent="1" source="_IO0_zcIHggkC3envVkG-46" target="_IO0_zcIHggkC3envVkG-14">
          <mxGeometry relative="1" as="geometry" />
        </mxCell>
        <mxCell id="_IO0_zcIHggkC3envVkG-54" value="&amp;lt;&amp;lt;deriveReqt&amp;gt;&amp;gt;" style="edgeLabel;html=1;align=center;verticalAlign=middle;resizable=0;points=[];" vertex="1" connectable="0" parent="_IO0_zcIHggkC3envVkG-51">
          <mxGeometry x="-0.7935" relative="1" as="geometry">
            <mxPoint as="offset" />
          </mxGeometry>
        </mxCell>
        <mxCell id="_IO0_zcIHggkC3envVkG-85" value="" style="fontStyle=1;align=center;verticalAlign=middle;childLayout=stackLayout;horizontal=1;horizontalStack=0;resizeParent=1;resizeParentMax=0;resizeLast=0;marginBottom=0;" vertex="1" parent="1">
          <mxGeometry x="-10" y="320" width="220" height="106" as="geometry" />
        </mxCell>
        <mxCell id="_IO0_zcIHggkC3envVkG-86" value="&amp;lt;&amp;lt;requirement&amp;gt;&amp;gt;" style="html=1;align=center;spacing=0;verticalAlign=middle;strokeColor=none;fillColor=none;whiteSpace=wrap;spacingTop=3;" vertex="1" parent="_IO0_zcIHggkC3envVkG-85">
          <mxGeometry width="220" height="16" as="geometry" />
        </mxCell>
        <mxCell id="_IO0_zcIHggkC3envVkG-87" value="3D-Printing" style="html=1;align=center;spacing=0;verticalAlign=middle;strokeColor=none;fillColor=none;whiteSpace=wrap;fontStyle=1" vertex="1" parent="_IO0_zcIHggkC3envVkG-85">
          <mxGeometry y="16" width="220" height="18" as="geometry" />
        </mxCell>
        <mxCell id="_IO0_zcIHggkC3envVkG-88" value="" style="line;strokeWidth=0.25;fillColor=none;align=left;verticalAlign=middle;spacingTop=-1;spacingLeft=3;spacingRight=3;rotatable=0;labelPosition=right;points=[];portConstraint=eastwest;" vertex="1" parent="_IO0_zcIHggkC3envVkG-85">
          <mxGeometry y="34" width="220" height="8" as="geometry" />
        </mxCell>
        <mxCell id="_IO0_zcIHggkC3envVkG-89" value="Id=&quot;F-P&quot;" style="html=1;align=left;spacing=0;verticalAlign=middle;strokeColor=none;fillColor=none;whiteSpace=wrap;spacingLeft=10;" vertex="1" parent="_IO0_zcIHggkC3envVkG-85">
          <mxGeometry y="42" width="220" height="16" as="geometry" />
        </mxCell>
        <mxCell id="_IO0_zcIHggkC3envVkG-90" value="text=&quot;The system shall be able to print 3D Objects according to customer specification&quot;" style="html=1;align=left;spacing=0;verticalAlign=middle;strokeColor=none;fillColor=none;whiteSpace=wrap;spacingLeft=10;" vertex="1" parent="_IO0_zcIHggkC3envVkG-85">
          <mxGeometry y="58" width="220" height="48" as="geometry" />
        </mxCell>
        <mxCell id="_IO0_zcIHggkC3envVkG-91" value="" style="fontStyle=1;align=center;verticalAlign=middle;childLayout=stackLayout;horizontal=1;horizontalStack=0;resizeParent=1;resizeParentMax=0;resizeLast=0;marginBottom=0;" vertex="1" parent="1">
          <mxGeometry x="140" y="590" width="220" height="106" as="geometry" />
        </mxCell>
        <mxCell id="_IO0_zcIHggkC3envVkG-92" value="&amp;lt;&amp;lt;requirement&amp;gt;&amp;gt;" style="html=1;align=center;spacing=0;verticalAlign=middle;strokeColor=none;fillColor=none;whiteSpace=wrap;spacingTop=3;" vertex="1" parent="_IO0_zcIHggkC3envVkG-91">
          <mxGeometry width="220" height="16" as="geometry" />
        </mxCell>
        <mxCell id="_IO0_zcIHggkC3envVkG-93" value="Material compatibility" style="html=1;align=center;spacing=0;verticalAlign=middle;strokeColor=none;fillColor=none;whiteSpace=wrap;fontStyle=1" vertex="1" parent="_IO0_zcIHggkC3envVkG-91">
          <mxGeometry y="16" width="220" height="18" as="geometry" />
        </mxCell>
        <mxCell id="_IO0_zcIHggkC3envVkG-94" value="" style="line;strokeWidth=0.25;fillColor=none;align=left;verticalAlign=middle;spacingTop=-1;spacingLeft=3;spacingRight=3;rotatable=0;labelPosition=right;points=[];portConstraint=eastwest;" vertex="1" parent="_IO0_zcIHggkC3envVkG-91">
          <mxGeometry y="34" width="220" height="8" as="geometry" />
        </mxCell>
        <mxCell id="_IO0_zcIHggkC3envVkG-95" value="Id=&quot;F-P-2&quot;" style="html=1;align=left;spacing=0;verticalAlign=middle;strokeColor=none;fillColor=none;whiteSpace=wrap;spacingLeft=10;" vertex="1" parent="_IO0_zcIHggkC3envVkG-91">
          <mxGeometry y="42" width="220" height="16" as="geometry" />
        </mxCell>
        <mxCell id="_IO0_zcIHggkC3envVkG-96" value="text=&quot;The system must be able to use different materials&quot;" style="html=1;align=left;spacing=0;verticalAlign=middle;strokeColor=none;fillColor=none;whiteSpace=wrap;spacingLeft=10;" vertex="1" parent="_IO0_zcIHggkC3envVkG-91">
          <mxGeometry y="58" width="220" height="48" as="geometry" />
        </mxCell>
        <mxCell id="_IO0_zcIHggkC3envVkG-97" value="" style="fontStyle=1;align=center;verticalAlign=middle;childLayout=stackLayout;horizontal=1;horizontalStack=0;resizeParent=1;resizeParentMax=0;resizeLast=0;marginBottom=0;" vertex="1" parent="1">
          <mxGeometry x="140" y="450" width="220" height="106" as="geometry" />
        </mxCell>
        <mxCell id="_IO0_zcIHggkC3envVkG-98" value="&amp;lt;&amp;lt;requirement&amp;gt;&amp;gt;" style="html=1;align=center;spacing=0;verticalAlign=middle;strokeColor=none;fillColor=none;whiteSpace=wrap;spacingTop=3;" vertex="1" parent="_IO0_zcIHggkC3envVkG-97">
          <mxGeometry width="220" height="16" as="geometry" />
        </mxCell>
        <mxCell id="_IO0_zcIHggkC3envVkG-99" value="Order Interface" style="html=1;align=center;spacing=0;verticalAlign=middle;strokeColor=none;fillColor=none;whiteSpace=wrap;fontStyle=1" vertex="1" parent="_IO0_zcIHggkC3envVkG-97">
          <mxGeometry y="16" width="220" height="18" as="geometry" />
        </mxCell>
        <mxCell id="_IO0_zcIHggkC3envVkG-100" value="" style="line;strokeWidth=0.25;fillColor=none;align=left;verticalAlign=middle;spacingTop=-1;spacingLeft=3;spacingRight=3;rotatable=0;labelPosition=right;points=[];portConstraint=eastwest;" vertex="1" parent="_IO0_zcIHggkC3envVkG-97">
          <mxGeometry y="34" width="220" height="8" as="geometry" />
        </mxCell>
        <mxCell id="_IO0_zcIHggkC3envVkG-101" value="Id=&quot;F-P-1&quot;" style="html=1;align=left;spacing=0;verticalAlign=middle;strokeColor=none;fillColor=none;whiteSpace=wrap;spacingLeft=10;" vertex="1" parent="_IO0_zcIHggkC3envVkG-97">
          <mxGeometry y="42" width="220" height="16" as="geometry" />
        </mxCell>
        <mxCell id="_IO0_zcIHggkC3envVkG-102" value="text=&quot;The system shall receive printing instructions from the MES&quot;" style="html=1;align=left;spacing=0;verticalAlign=middle;strokeColor=none;fillColor=none;whiteSpace=wrap;spacingLeft=10;" vertex="1" parent="_IO0_zcIHggkC3envVkG-97">
          <mxGeometry y="58" width="220" height="48" as="geometry" />
        </mxCell>
        <mxCell id="_IO0_zcIHggkC3envVkG-103" value="" style="fontStyle=1;align=center;verticalAlign=middle;childLayout=stackLayout;horizontal=1;horizontalStack=0;resizeParent=1;resizeParentMax=0;resizeLast=0;marginBottom=0;" vertex="1" parent="1">
          <mxGeometry x="140" y="730" width="220" height="106" as="geometry" />
        </mxCell>
        <mxCell id="_IO0_zcIHggkC3envVkG-104" value="&amp;lt;&amp;lt;requirement&amp;gt;&amp;gt;" style="html=1;align=center;spacing=0;verticalAlign=middle;strokeColor=none;fillColor=none;whiteSpace=wrap;spacingTop=3;" vertex="1" parent="_IO0_zcIHggkC3envVkG-103">
          <mxGeometry width="220" height="16" as="geometry" />
        </mxCell>
        <mxCell id="_IO0_zcIHggkC3envVkG-105" value="Error handling" style="html=1;align=center;spacing=0;verticalAlign=middle;strokeColor=none;fillColor=none;whiteSpace=wrap;fontStyle=1" vertex="1" parent="_IO0_zcIHggkC3envVkG-103">
          <mxGeometry y="16" width="220" height="18" as="geometry" />
        </mxCell>
        <mxCell id="_IO0_zcIHggkC3envVkG-106" value="" style="line;strokeWidth=0.25;fillColor=none;align=left;verticalAlign=middle;spacingTop=-1;spacingLeft=3;spacingRight=3;rotatable=0;labelPosition=right;points=[];portConstraint=eastwest;" vertex="1" parent="_IO0_zcIHggkC3envVkG-103">
          <mxGeometry y="34" width="220" height="8" as="geometry" />
        </mxCell>
        <mxCell id="_IO0_zcIHggkC3envVkG-107" value="Id=&quot;NF-P-3&quot;" style="html=1;align=left;spacing=0;verticalAlign=middle;strokeColor=none;fillColor=none;whiteSpace=wrap;spacingLeft=10;" vertex="1" parent="_IO0_zcIHggkC3envVkG-103">
          <mxGeometry y="42" width="220" height="16" as="geometry" />
        </mxCell>
        <mxCell id="_IO0_zcIHggkC3envVkG-108" value="text=&quot;The system must convert orders to a suitable 3D representation, which is ready for printing&quot;" style="html=1;align=left;spacing=0;verticalAlign=middle;strokeColor=none;fillColor=none;whiteSpace=wrap;spacingLeft=10;" vertex="1" parent="_IO0_zcIHggkC3envVkG-103">
          <mxGeometry y="58" width="220" height="48" as="geometry" />
        </mxCell>
        <mxCell id="_IO0_zcIHggkC3envVkG-109" style="edgeStyle=orthogonalEdgeStyle;rounded=0;orthogonalLoop=1;jettySize=auto;html=1;exitX=0;exitY=0.5;exitDx=0;exitDy=0;entryX=0.25;entryY=1;entryDx=0;entryDy=0;endArrow=open;endFill=0;dashed=1;" edge="1" parent="1" source="_IO0_zcIHggkC3envVkG-102" target="_IO0_zcIHggkC3envVkG-90">
          <mxGeometry relative="1" as="geometry">
            <mxPoint x="45" y="420" as="targetPoint" />
          </mxGeometry>
        </mxCell>
        <mxCell id="_IO0_zcIHggkC3envVkG-110" value="&amp;lt;&amp;lt;deriveReqt&amp;gt;&amp;gt;" style="edgeLabel;html=1;align=center;verticalAlign=middle;resizable=0;points=[];" vertex="1" connectable="0" parent="_IO0_zcIHggkC3envVkG-109">
          <mxGeometry x="-0.5091" y="1" relative="1" as="geometry">
            <mxPoint as="offset" />
          </mxGeometry>
        </mxCell>
        <mxCell id="_IO0_zcIHggkC3envVkG-111" style="edgeStyle=orthogonalEdgeStyle;rounded=0;orthogonalLoop=1;jettySize=auto;html=1;exitX=0;exitY=0.5;exitDx=0;exitDy=0;entryX=0.25;entryY=1;entryDx=0;entryDy=0;dashed=1;endArrow=open;endFill=0;" edge="1" parent="1" source="_IO0_zcIHggkC3envVkG-96" target="_IO0_zcIHggkC3envVkG-90">
          <mxGeometry relative="1" as="geometry">
            <mxPoint x="40" y="430" as="targetPoint" />
          </mxGeometry>
        </mxCell>
        <mxCell id="_IO0_zcIHggkC3envVkG-112" value="&amp;lt;&amp;lt;deriveReqt&amp;gt;&amp;gt;" style="edgeLabel;html=1;align=center;verticalAlign=middle;resizable=0;points=[];" vertex="1" connectable="0" parent="_IO0_zcIHggkC3envVkG-111">
          <mxGeometry x="-0.6944" relative="1" as="geometry">
            <mxPoint as="offset" />
          </mxGeometry>
        </mxCell>
        <mxCell id="_IO0_zcIHggkC3envVkG-113" style="edgeStyle=orthogonalEdgeStyle;rounded=0;orthogonalLoop=1;jettySize=auto;html=1;exitX=0;exitY=0.5;exitDx=0;exitDy=0;entryX=0.25;entryY=1;entryDx=0;entryDy=0;dashed=1;endArrow=open;endFill=0;" edge="1" parent="1" source="_IO0_zcIHggkC3envVkG-108" target="_IO0_zcIHggkC3envVkG-90">
          <mxGeometry relative="1" as="geometry" />
        </mxCell>
        <mxCell id="_IO0_zcIHggkC3envVkG-114" value="&amp;lt;&amp;lt;deriveReqt&amp;gt;&amp;gt;" style="edgeLabel;html=1;align=center;verticalAlign=middle;resizable=0;points=[];" vertex="1" connectable="0" parent="_IO0_zcIHggkC3envVkG-113">
          <mxGeometry x="-0.7935" relative="1" as="geometry">
            <mxPoint as="offset" />
          </mxGeometry>
        </mxCell>
        <mxCell id="_IO0_zcIHggkC3envVkG-115" style="edgeStyle=orthogonalEdgeStyle;rounded=0;orthogonalLoop=1;jettySize=auto;html=1;exitX=0.5;exitY=0;exitDx=0;exitDy=0;entryX=0.5;entryY=1;entryDx=0;entryDy=0;dashed=1;endArrow=open;endFill=0;" edge="1" parent="1" source="_IO0_zcIHggkC3envVkG-86" target="_IO0_zcIHggkC3envVkG-7">
          <mxGeometry relative="1" as="geometry" />
        </mxCell>
        <mxCell id="_IO0_zcIHggkC3envVkG-116" value="" style="fontStyle=1;align=center;verticalAlign=middle;childLayout=stackLayout;horizontal=1;horizontalStack=0;resizeParent=1;resizeParentMax=0;resizeLast=0;marginBottom=0;" vertex="1" parent="1">
          <mxGeometry x="390" y="320" width="220" height="106" as="geometry" />
        </mxCell>
        <mxCell id="_IO0_zcIHggkC3envVkG-117" value="&amp;lt;&amp;lt;requirement&amp;gt;&amp;gt;" style="html=1;align=center;spacing=0;verticalAlign=middle;strokeColor=none;fillColor=none;whiteSpace=wrap;spacingTop=3;" vertex="1" parent="_IO0_zcIHggkC3envVkG-116">
          <mxGeometry width="220" height="16" as="geometry" />
        </mxCell>
        <mxCell id="_IO0_zcIHggkC3envVkG-118" value="MES" style="html=1;align=center;spacing=0;verticalAlign=middle;strokeColor=none;fillColor=none;whiteSpace=wrap;fontStyle=1" vertex="1" parent="_IO0_zcIHggkC3envVkG-116">
          <mxGeometry y="16" width="220" height="18" as="geometry" />
        </mxCell>
        <mxCell id="_IO0_zcIHggkC3envVkG-119" value="" style="line;strokeWidth=0.25;fillColor=none;align=left;verticalAlign=middle;spacingTop=-1;spacingLeft=3;spacingRight=3;rotatable=0;labelPosition=right;points=[];portConstraint=eastwest;" vertex="1" parent="_IO0_zcIHggkC3envVkG-116">
          <mxGeometry y="34" width="220" height="8" as="geometry" />
        </mxCell>
        <mxCell id="_IO0_zcIHggkC3envVkG-120" value="Id=&quot;F-P&quot;" style="html=1;align=left;spacing=0;verticalAlign=middle;strokeColor=none;fillColor=none;whiteSpace=wrap;spacingLeft=10;" vertex="1" parent="_IO0_zcIHggkC3envVkG-116">
          <mxGeometry y="42" width="220" height="16" as="geometry" />
        </mxCell>
        <mxCell id="_IO0_zcIHggkC3envVkG-121" value="text=&quot;There shall be a cental system governing the facility processes&quot;" style="html=1;align=left;spacing=0;verticalAlign=middle;strokeColor=none;fillColor=none;whiteSpace=wrap;spacingLeft=10;" vertex="1" parent="_IO0_zcIHggkC3envVkG-116">
          <mxGeometry y="58" width="220" height="48" as="geometry" />
        </mxCell>
        <mxCell id="_IO0_zcIHggkC3envVkG-122" value="" style="fontStyle=1;align=center;verticalAlign=middle;childLayout=stackLayout;horizontal=1;horizontalStack=0;resizeParent=1;resizeParentMax=0;resizeLast=0;marginBottom=0;" vertex="1" parent="1">
          <mxGeometry x="540" y="590" width="220" height="106" as="geometry" />
        </mxCell>
        <mxCell id="_IO0_zcIHggkC3envVkG-123" value="&amp;lt;&amp;lt;requirement&amp;gt;&amp;gt;" style="html=1;align=center;spacing=0;verticalAlign=middle;strokeColor=none;fillColor=none;whiteSpace=wrap;spacingTop=3;" vertex="1" parent="_IO0_zcIHggkC3envVkG-122">
          <mxGeometry width="220" height="16" as="geometry" />
        </mxCell>
        <mxCell id="_IO0_zcIHggkC3envVkG-124" value="Material compatibility" style="html=1;align=center;spacing=0;verticalAlign=middle;strokeColor=none;fillColor=none;whiteSpace=wrap;fontStyle=1" vertex="1" parent="_IO0_zcIHggkC3envVkG-122">
          <mxGeometry y="16" width="220" height="18" as="geometry" />
        </mxCell>
        <mxCell id="_IO0_zcIHggkC3envVkG-125" value="" style="line;strokeWidth=0.25;fillColor=none;align=left;verticalAlign=middle;spacingTop=-1;spacingLeft=3;spacingRight=3;rotatable=0;labelPosition=right;points=[];portConstraint=eastwest;" vertex="1" parent="_IO0_zcIHggkC3envVkG-122">
          <mxGeometry y="34" width="220" height="8" as="geometry" />
        </mxCell>
        <mxCell id="_IO0_zcIHggkC3envVkG-126" value="Id=&quot;F-P-2&quot;" style="html=1;align=left;spacing=0;verticalAlign=middle;strokeColor=none;fillColor=none;whiteSpace=wrap;spacingLeft=10;" vertex="1" parent="_IO0_zcIHggkC3envVkG-122">
          <mxGeometry y="42" width="220" height="16" as="geometry" />
        </mxCell>
        <mxCell id="_IO0_zcIHggkC3envVkG-127" value="text=&quot;The system must be able to use different materials&quot;" style="html=1;align=left;spacing=0;verticalAlign=middle;strokeColor=none;fillColor=none;whiteSpace=wrap;spacingLeft=10;" vertex="1" parent="_IO0_zcIHggkC3envVkG-122">
          <mxGeometry y="58" width="220" height="48" as="geometry" />
        </mxCell>
        <mxCell id="_IO0_zcIHggkC3envVkG-128" value="" style="fontStyle=1;align=center;verticalAlign=middle;childLayout=stackLayout;horizontal=1;horizontalStack=0;resizeParent=1;resizeParentMax=0;resizeLast=0;marginBottom=0;" vertex="1" parent="1">
          <mxGeometry x="540" y="450" width="220" height="106" as="geometry" />
        </mxCell>
        <mxCell id="_IO0_zcIHggkC3envVkG-129" value="&amp;lt;&amp;lt;requirement&amp;gt;&amp;gt;" style="html=1;align=center;spacing=0;verticalAlign=middle;strokeColor=none;fillColor=none;whiteSpace=wrap;spacingTop=3;" vertex="1" parent="_IO0_zcIHggkC3envVkG-128">
          <mxGeometry width="220" height="16" as="geometry" />
        </mxCell>
        <mxCell id="_IO0_zcIHggkC3envVkG-130" value="Order Interface" style="html=1;align=center;spacing=0;verticalAlign=middle;strokeColor=none;fillColor=none;whiteSpace=wrap;fontStyle=1" vertex="1" parent="_IO0_zcIHggkC3envVkG-128">
          <mxGeometry y="16" width="220" height="18" as="geometry" />
        </mxCell>
        <mxCell id="_IO0_zcIHggkC3envVkG-131" value="" style="line;strokeWidth=0.25;fillColor=none;align=left;verticalAlign=middle;spacingTop=-1;spacingLeft=3;spacingRight=3;rotatable=0;labelPosition=right;points=[];portConstraint=eastwest;" vertex="1" parent="_IO0_zcIHggkC3envVkG-128">
          <mxGeometry y="34" width="220" height="8" as="geometry" />
        </mxCell>
        <mxCell id="_IO0_zcIHggkC3envVkG-132" value="Id=&quot;F-P-1&quot;" style="html=1;align=left;spacing=0;verticalAlign=middle;strokeColor=none;fillColor=none;whiteSpace=wrap;spacingLeft=10;" vertex="1" parent="_IO0_zcIHggkC3envVkG-128">
          <mxGeometry y="42" width="220" height="16" as="geometry" />
        </mxCell>
        <mxCell id="_IO0_zcIHggkC3envVkG-133" value="text=&quot;The system shall receive printing instructions from the MES&quot;" style="html=1;align=left;spacing=0;verticalAlign=middle;strokeColor=none;fillColor=none;whiteSpace=wrap;spacingLeft=10;" vertex="1" parent="_IO0_zcIHggkC3envVkG-128">
          <mxGeometry y="58" width="220" height="48" as="geometry" />
        </mxCell>
        <mxCell id="_IO0_zcIHggkC3envVkG-134" value="" style="fontStyle=1;align=center;verticalAlign=middle;childLayout=stackLayout;horizontal=1;horizontalStack=0;resizeParent=1;resizeParentMax=0;resizeLast=0;marginBottom=0;" vertex="1" parent="1">
          <mxGeometry x="540" y="730" width="220" height="106" as="geometry" />
        </mxCell>
        <mxCell id="_IO0_zcIHggkC3envVkG-135" value="&amp;lt;&amp;lt;requirement&amp;gt;&amp;gt;" style="html=1;align=center;spacing=0;verticalAlign=middle;strokeColor=none;fillColor=none;whiteSpace=wrap;spacingTop=3;" vertex="1" parent="_IO0_zcIHggkC3envVkG-134">
          <mxGeometry width="220" height="16" as="geometry" />
        </mxCell>
        <mxCell id="_IO0_zcIHggkC3envVkG-136" value="Error handling" style="html=1;align=center;spacing=0;verticalAlign=middle;strokeColor=none;fillColor=none;whiteSpace=wrap;fontStyle=1" vertex="1" parent="_IO0_zcIHggkC3envVkG-134">
          <mxGeometry y="16" width="220" height="18" as="geometry" />
        </mxCell>
        <mxCell id="_IO0_zcIHggkC3envVkG-137" value="" style="line;strokeWidth=0.25;fillColor=none;align=left;verticalAlign=middle;spacingTop=-1;spacingLeft=3;spacingRight=3;rotatable=0;labelPosition=right;points=[];portConstraint=eastwest;" vertex="1" parent="_IO0_zcIHggkC3envVkG-134">
          <mxGeometry y="34" width="220" height="8" as="geometry" />
        </mxCell>
        <mxCell id="_IO0_zcIHggkC3envVkG-138" value="Id=&quot;NF-P-3&quot;" style="html=1;align=left;spacing=0;verticalAlign=middle;strokeColor=none;fillColor=none;whiteSpace=wrap;spacingLeft=10;" vertex="1" parent="_IO0_zcIHggkC3envVkG-134">
          <mxGeometry y="42" width="220" height="16" as="geometry" />
        </mxCell>
        <mxCell id="_IO0_zcIHggkC3envVkG-139" value="text=&quot;The system must convert orders to a suitable 3D representation, which is ready for printing&quot;" style="html=1;align=left;spacing=0;verticalAlign=middle;strokeColor=none;fillColor=none;whiteSpace=wrap;spacingLeft=10;" vertex="1" parent="_IO0_zcIHggkC3envVkG-134">
          <mxGeometry y="58" width="220" height="48" as="geometry" />
        </mxCell>
        <mxCell id="_IO0_zcIHggkC3envVkG-140" style="edgeStyle=orthogonalEdgeStyle;rounded=0;orthogonalLoop=1;jettySize=auto;html=1;exitX=0;exitY=0.5;exitDx=0;exitDy=0;entryX=0.25;entryY=1;entryDx=0;entryDy=0;endArrow=open;endFill=0;dashed=1;" edge="1" parent="1" source="_IO0_zcIHggkC3envVkG-133" target="_IO0_zcIHggkC3envVkG-121">
          <mxGeometry relative="1" as="geometry">
            <mxPoint x="445" y="420" as="targetPoint" />
          </mxGeometry>
        </mxCell>
        <mxCell id="_IO0_zcIHggkC3envVkG-141" value="&amp;lt;&amp;lt;deriveReqt&amp;gt;&amp;gt;" style="edgeLabel;html=1;align=center;verticalAlign=middle;resizable=0;points=[];" vertex="1" connectable="0" parent="_IO0_zcIHggkC3envVkG-140">
          <mxGeometry x="-0.5091" y="1" relative="1" as="geometry">
            <mxPoint as="offset" />
          </mxGeometry>
        </mxCell>
        <mxCell id="_IO0_zcIHggkC3envVkG-142" style="edgeStyle=orthogonalEdgeStyle;rounded=0;orthogonalLoop=1;jettySize=auto;html=1;exitX=0;exitY=0.5;exitDx=0;exitDy=0;entryX=0.25;entryY=1;entryDx=0;entryDy=0;dashed=1;endArrow=open;endFill=0;" edge="1" parent="1" source="_IO0_zcIHggkC3envVkG-127" target="_IO0_zcIHggkC3envVkG-121">
          <mxGeometry relative="1" as="geometry">
            <mxPoint x="440" y="430" as="targetPoint" />
          </mxGeometry>
        </mxCell>
        <mxCell id="_IO0_zcIHggkC3envVkG-143" value="&amp;lt;&amp;lt;deriveReqt&amp;gt;&amp;gt;" style="edgeLabel;html=1;align=center;verticalAlign=middle;resizable=0;points=[];" vertex="1" connectable="0" parent="_IO0_zcIHggkC3envVkG-142">
          <mxGeometry x="-0.6944" relative="1" as="geometry">
            <mxPoint as="offset" />
          </mxGeometry>
        </mxCell>
        <mxCell id="_IO0_zcIHggkC3envVkG-144" style="edgeStyle=orthogonalEdgeStyle;rounded=0;orthogonalLoop=1;jettySize=auto;html=1;exitX=0;exitY=0.5;exitDx=0;exitDy=0;entryX=0.25;entryY=1;entryDx=0;entryDy=0;dashed=1;endArrow=open;endFill=0;" edge="1" parent="1" source="_IO0_zcIHggkC3envVkG-139" target="_IO0_zcIHggkC3envVkG-121">
          <mxGeometry relative="1" as="geometry" />
        </mxCell>
        <mxCell id="_IO0_zcIHggkC3envVkG-145" value="&amp;lt;&amp;lt;deriveReqt&amp;gt;&amp;gt;" style="edgeLabel;html=1;align=center;verticalAlign=middle;resizable=0;points=[];" vertex="1" connectable="0" parent="_IO0_zcIHggkC3envVkG-144">
          <mxGeometry x="-0.7935" relative="1" as="geometry">
            <mxPoint as="offset" />
          </mxGeometry>
        </mxCell>
        <mxCell id="_IO0_zcIHggkC3envVkG-146" style="edgeStyle=orthogonalEdgeStyle;rounded=0;orthogonalLoop=1;jettySize=auto;html=1;exitX=0.5;exitY=0;exitDx=0;exitDy=0;entryX=0.5;entryY=1;entryDx=0;entryDy=0;endArrow=open;endFill=0;dashed=1;" edge="1" parent="1" source="_IO0_zcIHggkC3envVkG-117" target="_IO0_zcIHggkC3envVkG-7">
          <mxGeometry relative="1" as="geometry" />
        </mxCell>
      </root>
    </mxGraphModel>
  </diagram>
</mxfile>
